PathFileType	4	(X/Y/Z) flx_2kg_2.trc																										
DataRate	CameraRate	NumFrames	NumMarkers	Units	OrigDataRate	OrigDataStartFrame	OrigNumFrames																					
100	100	19	9	mm	100	411	821																					
Frame#	Time	gu			centelbow			EpL			centpxt8			centijc7			ij			ts			aa			ai		
		X1	Y1	Z1	X2	Y2	Z2	X3	Y3	Z3	X4	Y4	Z4	X5	Y5	Z5	X6	Y6	Z6	X7	Y7	Z7	X8	Y8	Z8	X9	Y9	Z9  
410	4.1	-110.601	61.111	101.537	-31.079	277.452	190.178	-57.766	288.555	175.896	-46.816	-153.158	-8.669	-46.816	31.938	-8.669	0	0	0	-136.055	-24.499	53.268	-141.843	81.537	107.56	-110.321	-69.043	154.457
411	4.11	-110.715	61.136	101.652	-31.181	277.351	190.588	-57.847	288.481	176.288	-46.816	-153.158	-8.669	-46.816	31.938	-8.669	0	0	0	-136.221	-24.36	53.001	-142.036	81.652	107.338	-110.554	-68.951	154.187
412	4.12	-110.813	60.989	101.817	-31.175	277.027	191.091	-57.82	288.197	176.784	-46.816	-153.158	-8.669	-46.816	31.938	-8.669	0	0	0	-136.48	-24.318	52.822	-142.318	81.66	107.222	-110.905	-68.979	154
413	4.13	-110.884	60.801	101.874	-31.107	276.657	191.463	-57.741	287.866	177.165	-46.816	-153.158	-8.669	-46.816	31.938	-8.669	0	0	0	-136.642	-24.424	52.785	-142.494	81.519	107.252	-111.163	-69.161	153.954
414	4.14	-110.982	60.634	101.806	-31.044	276.321	191.659	-57.674	287.566	177.382	-46.816	-153.158	-8.669	-46.816	31.938	-8.669	0	0	0	-136.732	-24.609	52.755	-142.564	81.301	107.287	-111.329	-69.424	153.908
415	4.15	-111.066	60.522	101.676	-30.97	276.071	191.719	-57.6	287.345	177.466	-46.816	-153.158	-8.669	-46.816	31.938	-8.669	0	0	0	-136.874	-24.705	52.587	-142.653	81.179	107.177	-111.505	-69.588	153.718
416	4.16	-111.055	60.466	101.531	-30.845	275.925	191.688	-57.478	287.218	177.456	-46.816	-153.158	-8.669	-46.816	31.938	-8.669	0	0	0	-136.983	-24.639	52.345	-142.713	81.224	106.98	-111.612	-69.574	153.453
417	4.17	-110.987	60.379	101.416	-30.707	275.779	191.65	-57.345	287.083	177.436	-46.816	-153.158	-8.669	-46.816	31.938	-8.669	0	0	0	-136.929	-24.546	52.226	-142.635	81.298	106.899	-111.548	-69.521	153.314
418	4.18	-110.916	60.18	101.401	-30.584	275.528	191.714	-57.226	286.842	177.514	-46.816	-153.158	-8.669	-46.816	31.938	-8.669	0	0	0	-136.734	-24.592	52.307	-142.434	81.233	107.018	-111.365	-69.605	153.381
419	4.19	-110.809	60.006	101.495	-30.44	275.304	191.893	-57.084	286.627	177.705	-46.816	-153.158	-8.669	-46.816	31.938	-8.669	0	0	0	-136.517	-24.746	52.471	-142.208	81.061	107.218	-111.171	-69.799	153.533
420	4.2	-110.68	60.022	101.582	-30.291	275.278	192.062	-56.939	286.608	177.885	-46.816	-153.158	-8.669	-46.816	31.938	-8.669	0	0	0	-136.411	-24.848	52.575	-142.084	80.944	107.353	-111.077	-69.935	153.624
421	4.21	-110.613	60.122	101.56	-30.177	275.329	192.116	-56.826	286.668	177.95	-46.816	-153.158	-8.669	-46.816	31.938	-8.669	0	0	0	-136.463	-24.823	52.608	-142.11	80.957	107.412	-111.129	-69.94	153.644
422	4.22	-110.609	60.105	101.494	-30.057	275.237	192.125	-56.703	286.595	177.968	-46.816	-153.158	-8.669	-46.816	31.938	-8.669	0	0	0	-136.568	-24.703	52.646	-142.189	81.066	107.474	-111.248	-69.849	153.673
423	4.23	-110.657	59.983	101.507	-29.922	275.01	192.224	-56.558	286.396	178.07	-46.816	-153.158	-8.669	-46.816	31.938	-8.669	0	0	0	-136.618	-24.533	52.74	-142.216	81.226	107.59	-111.332	-69.71	153.761
424	4.24	-110.788	59.901	101.572	-29.828	274.796	192.402	-56.447	286.219	178.246	-46.816	-153.158	-8.669	-46.816	31.938	-8.669	0	0	0	-136.627	-24.386	52.835	-142.192	81.362	107.71	-111.371	-69.597	153.849
425	4.25	-110.959	59.92	101.574	-29.75	274.654	192.563	-56.349	286.12	178.405	-46.816	-153.158	-8.669	-46.816	31.938	-8.669	0	0	0	-136.654	-24.347	52.851	-142.158	81.39	107.753	-111.41	-69.596	153.851
426	4.26	-111.08	59.963	101.493	-29.605	274.512	192.68	-56.183	286.026	178.522	-46.816	-153.158	-8.669	-46.816	31.938	-8.669	0	0	0	-136.74	-24.404	52.804	-142.153	81.323	107.735	-111.504	-69.698	153.786
427	4.27	-111.154	59.994	101.367	-29.399	274.345	192.768	-55.956	285.91	178.611	-46.816	-153.158	-8.669	-46.816	31.938	-8.669	0	0	0	-136.875	-24.431	52.752	-142.184	81.285	107.715	-111.66	-69.776	153.716
428	4.28	-111.225	60.068	101.235	-29.17	274.21	192.856	-55.704	285.829	178.7	-46.816	-153.158	-8.669	-46.816	31.938	-8.669	0	0	0	-137.01	-24.339	52.686	-142.219	81.36	107.691	-111.821	-69.745	153.629
